<?xml version="1.0" encoding="UTF-8" standalone="no"?>
<!DOCTYPE svg PUBLIC "-//W3C//DTD SVG 1.1//EN" "http://www.w3.org/Graphics/SVG/1.1/DTD/svg11.dtd">
<svg width="100%" height="100%" viewBox="0 0 2000 2000" version="1.1" xmlns="http://www.w3.org/2000/svg" xmlns:xlink="http://www.w3.org/1999/xlink" xml:space="preserve" xmlns:serif="http://www.serif.com/" style="fill-rule:evenodd;clip-rule:evenodd;stroke-linecap:round;stroke-linejoin:round;stroke-miterlimit:1.5;">
    <g transform="matrix(3.90625,0,0,3.90625,0,0)">
        <rect x="0" y="0" width="512" height="512" style="fill:url(#_Radial1);"/>
    </g>
    <g transform="matrix(1.599949,0,0,1.599949,-765.998688,-487.605575)">
        <g id="Fosforo" transform="matrix(1.317502,-0,0,1.317502,-513.100076,-469.152223)">
            <path d="M870.969,1432.867L869.848,787.314C881.951,779.848 917.476,780.179 928.121,788.601L926.243,1434.511C920.018,1456.171 872.594,1456.1 870.969,1432.867Z" style="fill:url(#_Linear2);"/>
            <path d="M869.848,787.314C869.848,787.314 869.529,786.474 869.372,785.901C856.087,737.419 855.521,718.523 855.47,702.858C850.826,652.269 924.594,626.174 942.027,695.965C943.654,724.868 935.383,756.225 928.583,785.783C928.428,786.455 928.121,788.601 928.121,788.601C927.523,788.128 926.846,787.68 926.099,787.257C914.023,780.431 883.651,780.27 871.211,786.554C870.729,786.798 870.274,787.051 869.848,787.314Z" style="fill:rgb(134,50,31);"/>
            <path d="M916.48,783.853C902.13,780.644 881.055,781.581 871.211,786.554C870.729,786.798 870.274,787.051 869.848,787.314C869.848,787.314 869.529,786.474 869.372,785.901C856.087,737.419 855.521,718.523 855.47,702.858C852.801,673.791 876.019,652.81 899.564,653.458C937.114,666.499 929.461,720.707 916.48,783.853Z" style="fill:rgb(199,87,57);"/>
            <path d="M887.612,787.314C887.612,787.314 887.36,879.142 891.197,923.041C892.966,943.275 897.35,1009.008 892.99,1051.658C888.708,1093.538 885.167,1164.915 891.197,1213.346C895.346,1246.671 895.948,1275.434 901.116,1313.603C906.606,1354.138 904.431,1445.612 902.586,1444.587" style="fill:none;stroke:rgb(110,74,10);stroke-opacity:0.36;stroke-width:1.53px;"/>
            <path d="M911.381,1327.369C911.077,1324.511 910.814,1312.26 910.451,1309.304C910.336,1308.369 909.461,1299.481 909.171,1297.648C908.339,1292.391 908.284,1292.401 907.975,1289.802C903.002,1247.9 903.046,1247.896 902.731,1244.976C900.771,1226.829 900.311,1222.932 899.742,1213.201C899.394,1207.252 899.411,1206.174 899.127,1200.569C898.224,1182.752 898.05,1164.896 898,1159.035C897.976,1156.249 897.923,1125.459 899.303,1098.346C900.801,1068.901 902.556,1060.9 905.06,1039.281C907.045,1022.151 907.071,1015.75 907.395,1004.603C908.303,973.416 909.007,933.816 905.045,906.816C900.468,875.623 897.969,831.092 898.845,801.047C898.862,800.454 899.406,792.803 900.352,785.703C900.395,785.381 900.385,785.38 900.399,785.355C900.508,785.172 900.608,785.272 900.717,785.09C900.77,785.321 900.914,785.526 900.967,785.757C900.984,785.83 900.674,790.666 900.805,800.243C900.826,801.758 900.482,809.728 900.742,824.528C901.165,848.665 903.128,880.877 906.822,906.557C911.113,936.385 909.185,980.512 908.483,1011.698C908.159,1026.064 907.061,1035.347 904.858,1054.062C903.158,1068.509 901.771,1079.526 900.59,1115.251C899.994,1133.272 899.866,1147.873 899.82,1164.437C899.788,1175.601 899.901,1188.603 900.399,1201.71C900.438,1202.736 901.119,1216.538 902.532,1227.999C904.565,1244.481 904.619,1244.473 905.71,1253.781L909.938,1289.569C910.045,1290.467 910.585,1295.018 910.762,1300.844C910.937,1306.596 910.869,1306.881 911.091,1309.544C911.293,1311.964 911.192,1323.908 911.381,1327.369Z" style="fill:rgb(110,74,10);fill-opacity:0.36;"/>
            <path d="M895.735,1446.865C895.703,1446.739 895.488,1446.719 895.456,1446.594C895.445,1446.554 895.481,1446.552 895.087,1434.706C894.264,1409.894 893.722,1384.04 891.964,1343.584C890.555,1311.173 889.799,1302.133 889.442,1293.288C889.07,1284.084 888.993,1280.007 888.705,1270.625C888.704,1270.587 888.681,1270.515 888.718,1270.513C888.761,1270.509 888.738,1270.54 888.878,1271.766C890.336,1284.554 890.876,1290.487 891.433,1298.334C891.504,1299.323 892.722,1319.365 893.72,1343.51C894.628,1365.48 895.665,1399.382 895.9,1425.835C896.025,1439.866 895.965,1441.142 895.992,1445.704C895.994,1445.998 896.07,1446.298 896.006,1446.585C895.978,1446.712 895.763,1446.738 895.735,1446.865Z" style="fill:rgb(110,74,10);fill-opacity:0.36;"/>
            <path d="M914.309,1238.842C912.351,1224.633 909.318,1200.919 908.333,1160.987C907.877,1142.494 908.125,1126.254 908.262,1118.648C908.515,1104.627 909.971,1084.052 909.967,1084.458L909.562,1117.254C909.458,1125.753 908.578,1162.477 911.184,1202.193C912.216,1217.92 913.143,1228.116 914.309,1238.842Z" style="fill:rgb(110,74,10);fill-opacity:0.36;"/>
            <path d="M912.757,787.651C911.508,854.903 915.308,874.672 917.582,904.227C918.614,917.642 917.86,936.007 917.991,957.794C918.922,1112.16 919.589,1440.287 919.589,1440.287" style="fill:none;stroke:rgb(110,74,10);stroke-opacity:0.36;stroke-width:1.98px;"/>
            <path d="M878.75,793.518C878.75,793.518 875.392,923.384 880.099,972.539C883.841,1011.621 882.444,1050.704 880.983,1089.786C878.79,1148.42 881.528,1324.966 882.864,1401.055C883.249,1422.995 884.444,1440.288 884.444,1440.288" style="fill:none;stroke:rgb(110,74,10);stroke-opacity:0.36;stroke-width:1.98px;"/>
        </g>
        <g id="Fosforo1" serif:id="Fosforo" transform="matrix(0,-1.317502,1.317502,0,-277.897236,2538.039995)">
            <path d="M870.969,1432.867L869.848,787.314C881.951,779.848 917.476,780.179 928.121,788.601L926.243,1434.511C920.018,1456.171 872.594,1456.1 870.969,1432.867Z" style="fill:url(#_Linear3);"/>
            <path d="M869.848,787.314C869.848,787.314 869.529,786.474 869.372,785.901C856.087,737.419 855.521,718.523 855.47,702.858C850.826,652.269 924.594,626.174 942.027,695.965C943.654,724.868 935.383,756.225 928.583,785.783C928.428,786.455 928.121,788.601 928.121,788.601C927.523,788.128 926.846,787.68 926.099,787.257C914.023,780.431 883.651,780.27 871.211,786.554C870.729,786.798 870.274,787.051 869.848,787.314Z" style="fill:rgb(134,50,31);"/>
            <path d="M916.48,783.853C902.13,780.644 881.055,781.581 871.211,786.554C870.729,786.798 870.274,787.051 869.848,787.314C869.848,787.314 869.529,786.474 869.372,785.901C856.087,737.419 855.521,718.523 855.47,702.858C852.801,673.791 876.019,652.81 899.564,653.458C937.114,666.499 929.461,720.707 916.48,783.853Z" style="fill:rgb(199,87,57);"/>
            <path d="M887.612,787.314C887.612,787.314 887.36,879.142 891.197,923.041C892.966,943.275 897.35,1009.008 892.99,1051.658C888.708,1093.538 885.167,1164.915 891.197,1213.346C895.346,1246.671 895.948,1275.434 901.116,1313.603C906.606,1354.138 904.431,1445.612 902.586,1444.587" style="fill:none;stroke:rgb(110,74,10);stroke-opacity:0.36;stroke-width:1.53px;"/>
            <path d="M911.381,1327.369C911.077,1324.511 910.814,1312.26 910.451,1309.304C910.336,1308.369 909.461,1299.481 909.171,1297.648C908.339,1292.391 908.284,1292.401 907.975,1289.802C903.002,1247.9 903.046,1247.896 902.731,1244.976C900.771,1226.829 900.311,1222.932 899.742,1213.201C899.394,1207.252 899.411,1206.174 899.127,1200.569C898.224,1182.752 898.05,1164.896 898,1159.035C897.976,1156.249 897.923,1125.459 899.303,1098.346C900.801,1068.901 902.556,1060.9 905.06,1039.281C907.045,1022.151 907.071,1015.75 907.395,1004.603C908.303,973.416 909.007,933.816 905.045,906.816C900.468,875.623 897.969,831.092 898.845,801.047C898.862,800.454 899.406,792.803 900.352,785.703C900.395,785.381 900.385,785.38 900.399,785.355C900.507,785.173 900.608,785.273 900.717,785.09C900.77,785.321 900.914,785.526 900.967,785.757C900.984,785.83 900.674,790.666 900.805,800.243C900.826,801.758 900.482,809.728 900.742,824.528C901.165,848.665 903.128,880.877 906.822,906.557C911.113,936.385 909.185,980.512 908.483,1011.698C908.159,1026.064 907.061,1035.347 904.858,1054.062C903.158,1068.509 901.771,1079.526 900.59,1115.251C899.994,1133.272 899.866,1147.873 899.82,1164.437C899.788,1175.601 899.901,1188.603 900.399,1201.71C900.438,1202.736 901.119,1216.538 902.532,1227.999C904.565,1244.481 904.619,1244.473 905.71,1253.781L909.938,1289.569C910.045,1290.467 910.585,1295.018 910.762,1300.844C910.937,1306.596 910.869,1306.881 911.091,1309.544C911.293,1311.964 911.192,1323.908 911.381,1327.369Z" style="fill:rgb(110,74,10);fill-opacity:0.36;"/>
            <path d="M895.735,1446.865C895.703,1446.739 895.488,1446.719 895.456,1446.594C895.445,1446.554 895.481,1446.552 895.087,1434.706C894.264,1409.894 893.722,1384.04 891.964,1343.584C890.555,1311.173 889.799,1302.133 889.442,1293.288C889.07,1284.084 888.993,1280.007 888.705,1270.625C888.704,1270.587 888.681,1270.515 888.718,1270.513C888.761,1270.509 888.738,1270.54 888.878,1271.766C890.336,1284.554 890.876,1290.487 891.433,1298.334C891.504,1299.323 892.722,1319.365 893.72,1343.51C894.628,1365.48 895.665,1399.382 895.9,1425.835C896.025,1439.866 895.965,1441.142 895.992,1445.704C895.994,1445.998 896.07,1446.298 896.006,1446.585C895.978,1446.712 895.763,1446.738 895.735,1446.865Z" style="fill:rgb(110,74,10);fill-opacity:0.36;"/>
            <path d="M914.309,1238.842C912.351,1224.633 909.318,1200.919 908.333,1160.987C907.877,1142.494 908.125,1126.254 908.262,1118.648C908.515,1104.627 909.971,1084.052 909.967,1084.458L909.562,1117.254C909.458,1125.753 908.578,1162.477 911.184,1202.193C912.216,1217.92 913.143,1228.116 914.309,1238.842Z" style="fill:rgb(110,74,10);fill-opacity:0.36;"/>
            <path d="M912.757,787.651C911.508,854.903 915.308,874.672 917.582,904.227C918.614,917.642 917.86,936.007 917.991,957.794C918.922,1112.16 919.589,1440.287 919.589,1440.287" style="fill:none;stroke:rgb(110,74,10);stroke-opacity:0.36;stroke-width:1.98px;"/>
            <path d="M878.75,793.518C878.75,793.518 875.392,923.384 880.099,972.539C883.841,1011.621 882.444,1050.704 880.983,1089.786C878.79,1148.42 881.528,1324.966 882.864,1401.055C883.249,1422.995 884.444,1440.288 884.444,1440.288" style="fill:none;stroke:rgb(110,74,10);stroke-opacity:0.36;stroke-width:1.98px;"/>
        </g>
        <g id="Fosforo2" serif:id="Fosforo" transform="matrix(-1.317502,0,-0,-1.317502,2720.66794,2328.718078)">
            <path d="M870.969,1432.867L869.848,787.314C881.951,779.848 917.476,780.179 928.121,788.601L926.243,1434.511C920.018,1456.171 872.594,1456.1 870.969,1432.867Z" style="fill:url(#_Linear4);"/>
            <path d="M869.848,787.314C869.848,787.314 869.529,786.474 869.372,785.901C856.087,737.419 855.521,718.523 855.47,702.858C850.826,652.269 924.594,626.174 942.027,695.965C943.654,724.868 935.383,756.225 928.583,785.783C928.428,786.455 928.121,788.601 928.121,788.601C927.523,788.128 926.846,787.68 926.099,787.257C914.023,780.431 883.651,780.27 871.211,786.554C870.729,786.798 870.274,787.051 869.848,787.314Z" style="fill:rgb(134,50,31);"/>
            <path d="M916.48,783.853C902.13,780.644 881.055,781.581 871.211,786.554C870.729,786.798 870.274,787.051 869.848,787.314C869.848,787.314 869.529,786.474 869.372,785.901C856.087,737.419 855.521,718.523 855.47,702.858C852.801,673.791 876.019,652.81 899.564,653.458C937.114,666.499 929.461,720.707 916.48,783.853Z" style="fill:rgb(199,87,57);"/>
            <path d="M887.612,787.314C887.612,787.314 887.36,879.142 891.197,923.041C892.966,943.275 897.35,1009.008 892.99,1051.658C888.708,1093.538 885.167,1164.915 891.197,1213.346C895.346,1246.671 895.948,1275.434 901.116,1313.603C906.606,1354.138 904.431,1445.612 902.586,1444.587" style="fill:none;stroke:rgb(110,74,10);stroke-opacity:0.36;stroke-width:1.53px;"/>
            <path d="M911.381,1327.369C911.077,1324.511 910.814,1312.26 910.451,1309.304C910.336,1308.369 909.461,1299.481 909.171,1297.648C908.339,1292.391 908.284,1292.401 907.975,1289.802C903.002,1247.9 903.046,1247.896 902.731,1244.976C900.771,1226.829 900.311,1222.932 899.742,1213.201C899.394,1207.252 899.411,1206.174 899.127,1200.569C898.224,1182.752 898.05,1164.896 898,1159.035C897.976,1156.249 897.923,1125.459 899.303,1098.346C900.801,1068.901 902.556,1060.9 905.06,1039.281C907.045,1022.151 907.071,1015.75 907.395,1004.603C908.303,973.416 909.007,933.816 905.045,906.816C900.468,875.623 897.969,831.092 898.845,801.047C898.862,800.454 899.406,792.803 900.352,785.703C900.395,785.381 900.385,785.38 900.399,785.355C900.507,785.173 900.608,785.273 900.717,785.09C900.77,785.321 900.914,785.526 900.967,785.757C900.984,785.83 900.674,790.666 900.805,800.243C900.826,801.758 900.482,809.728 900.742,824.528C901.165,848.665 903.128,880.877 906.822,906.557C911.113,936.385 909.185,980.512 908.483,1011.698C908.159,1026.064 907.061,1035.347 904.858,1054.062C903.158,1068.509 901.771,1079.526 900.59,1115.251C899.994,1133.272 899.866,1147.873 899.82,1164.437C899.788,1175.601 899.901,1188.603 900.399,1201.71C900.438,1202.736 901.119,1216.538 902.532,1227.999C904.565,1244.481 904.619,1244.473 905.71,1253.781L909.938,1289.569C910.045,1290.467 910.585,1295.018 910.762,1300.844C910.937,1306.596 910.869,1306.881 911.091,1309.544C911.293,1311.964 911.192,1323.908 911.381,1327.369Z" style="fill:rgb(110,74,10);fill-opacity:0.36;"/>
            <path d="M895.735,1446.865C895.703,1446.739 895.488,1446.719 895.456,1446.594C895.445,1446.554 895.481,1446.552 895.087,1434.706C894.264,1409.894 893.722,1384.04 891.964,1343.584C890.555,1311.173 889.799,1302.133 889.442,1293.288C889.07,1284.084 888.993,1280.007 888.705,1270.625C888.704,1270.587 888.681,1270.515 888.718,1270.513C888.761,1270.509 888.738,1270.54 888.878,1271.766C890.336,1284.554 890.876,1290.487 891.433,1298.334C891.504,1299.323 892.722,1319.365 893.72,1343.51C894.628,1365.48 895.665,1399.382 895.9,1425.835C896.025,1439.866 895.965,1441.142 895.992,1445.704C895.994,1445.998 896.07,1446.298 896.006,1446.585C895.978,1446.712 895.763,1446.738 895.735,1446.865Z" style="fill:rgb(110,74,10);fill-opacity:0.36;"/>
            <path d="M914.309,1238.842C912.351,1224.633 909.318,1200.919 908.333,1160.987C907.877,1142.494 908.125,1126.254 908.262,1118.648C908.515,1104.627 909.971,1084.052 909.967,1084.458L909.562,1117.254C909.458,1125.753 908.578,1162.477 911.184,1202.193C912.216,1217.92 913.143,1228.116 914.309,1238.842Z" style="fill:rgb(110,74,10);fill-opacity:0.36;"/>
            <path d="M912.757,787.651C911.508,854.903 915.308,874.672 917.582,904.227C918.614,917.642 917.86,936.007 917.991,957.794C918.922,1112.16 919.589,1440.287 919.589,1440.287" style="fill:none;stroke:rgb(110,74,10);stroke-opacity:0.36;stroke-width:1.98px;"/>
            <path d="M878.75,793.518C878.75,793.518 875.392,923.384 880.099,972.539C883.841,1011.621 882.444,1050.704 880.983,1089.786C878.79,1148.42 881.528,1324.966 882.864,1401.055C883.249,1422.995 884.444,1440.288 884.444,1440.288" style="fill:none;stroke:rgb(110,74,10);stroke-opacity:0.36;stroke-width:1.98px;"/>
        </g>
        <g id="Fosforo3" serif:id="Fosforo" transform="matrix(0,1.317502,-1.317502,0,2485.465502,-695.727921)">
            <path d="M870.969,1432.867L869.848,787.314C881.951,779.848 917.476,780.179 928.121,788.601L926.243,1434.511C920.018,1456.171 872.594,1456.1 870.969,1432.867Z" style="fill:url(#_Linear5);"/>
            <path d="M869.848,787.314C869.848,787.314 869.529,786.474 869.372,785.901C856.087,737.419 855.521,718.523 855.47,702.858C850.826,652.269 924.594,626.174 942.027,695.965C943.654,724.868 935.383,756.225 928.583,785.783C928.428,786.455 928.121,788.601 928.121,788.601C927.523,788.128 926.846,787.68 926.099,787.257C914.023,780.431 883.651,780.27 871.211,786.554C870.729,786.798 870.274,787.051 869.848,787.314Z" style="fill:rgb(134,50,31);"/>
            <path d="M916.48,783.853C902.13,780.644 881.055,781.581 871.211,786.554C870.729,786.798 870.274,787.051 869.848,787.314C869.848,787.314 869.529,786.474 869.372,785.901C856.087,737.419 855.521,718.523 855.47,702.858C852.801,673.791 876.019,652.81 899.564,653.458C937.114,666.499 929.461,720.707 916.48,783.853Z" style="fill:rgb(199,87,57);"/>
            <path d="M887.612,787.314C887.612,787.314 887.36,879.142 891.197,923.041C892.966,943.275 897.35,1009.008 892.99,1051.658C888.708,1093.538 885.167,1164.915 891.197,1213.346C895.346,1246.671 895.948,1275.434 901.116,1313.603C906.606,1354.138 904.431,1445.612 902.586,1444.587" style="fill:none;stroke:rgb(110,74,10);stroke-opacity:0.36;stroke-width:1.53px;"/>
            <path d="M911.381,1327.369C911.077,1324.511 910.814,1312.26 910.451,1309.304C910.336,1308.369 909.461,1299.481 909.171,1297.648C908.339,1292.391 908.284,1292.401 907.975,1289.802C903.002,1247.9 903.046,1247.896 902.731,1244.976C900.771,1226.829 900.311,1222.932 899.742,1213.201C899.394,1207.252 899.411,1206.174 899.127,1200.569C898.224,1182.752 898.05,1164.896 898,1159.035C897.976,1156.249 897.923,1125.459 899.303,1098.346C900.801,1068.901 902.556,1060.9 905.06,1039.281C907.045,1022.151 907.071,1015.75 907.395,1004.603C908.303,973.416 909.007,933.816 905.045,906.816C900.468,875.623 897.969,831.092 898.845,801.047C898.862,800.454 899.406,792.803 900.352,785.703C900.395,785.381 900.385,785.38 900.399,785.355C900.507,785.173 900.608,785.273 900.717,785.09C900.77,785.321 900.914,785.526 900.967,785.757C900.984,785.83 900.674,790.666 900.805,800.243C900.826,801.758 900.482,809.728 900.742,824.528C901.165,848.665 903.128,880.877 906.822,906.557C911.113,936.385 909.185,980.512 908.483,1011.698C908.159,1026.064 907.061,1035.347 904.858,1054.062C903.158,1068.509 901.771,1079.526 900.59,1115.251C899.994,1133.272 899.866,1147.873 899.82,1164.437C899.788,1175.601 899.901,1188.603 900.399,1201.71C900.438,1202.736 901.119,1216.538 902.532,1227.999C904.565,1244.481 904.619,1244.473 905.71,1253.781L909.938,1289.569C910.045,1290.467 910.585,1295.018 910.762,1300.844C910.937,1306.596 910.869,1306.881 911.091,1309.544C911.293,1311.964 911.192,1323.908 911.381,1327.369Z" style="fill:rgb(110,74,10);fill-opacity:0.36;"/>
            <path d="M895.735,1446.865C895.703,1446.739 895.488,1446.719 895.456,1446.594C895.445,1446.554 895.481,1446.552 895.087,1434.706C894.264,1409.894 893.722,1384.04 891.964,1343.584C890.555,1311.173 889.799,1302.133 889.442,1293.288C889.07,1284.084 888.993,1280.007 888.705,1270.625C888.704,1270.587 888.681,1270.515 888.718,1270.513C888.761,1270.509 888.738,1270.54 888.878,1271.766C890.336,1284.554 890.876,1290.487 891.433,1298.334C891.504,1299.323 892.722,1319.365 893.72,1343.51C894.628,1365.48 895.665,1399.382 895.9,1425.835C896.025,1439.866 895.965,1441.142 895.992,1445.704C895.994,1445.998 896.07,1446.298 896.006,1446.585C895.978,1446.712 895.763,1446.738 895.735,1446.865Z" style="fill:rgb(110,74,10);fill-opacity:0.36;"/>
            <path d="M914.309,1238.842C912.351,1224.633 909.318,1200.919 908.333,1160.987C907.877,1142.494 908.125,1126.254 908.262,1118.648C908.515,1104.627 909.971,1084.052 909.967,1084.458L909.562,1117.254C909.458,1125.753 908.578,1162.477 911.184,1202.193C912.216,1217.92 913.143,1228.116 914.309,1238.842Z" style="fill:rgb(110,74,10);fill-opacity:0.36;"/>
            <path d="M912.757,787.651C911.508,854.903 915.308,874.672 917.582,904.227C918.614,917.642 917.86,936.007 917.991,957.794C918.922,1112.16 919.589,1440.287 919.589,1440.287" style="fill:none;stroke:rgb(110,74,10);stroke-opacity:0.36;stroke-width:1.98px;"/>
            <path d="M878.75,793.518C878.75,793.518 875.392,923.384 880.099,972.539C883.841,1011.621 882.444,1050.704 880.983,1089.786C878.79,1148.42 881.528,1324.966 882.864,1401.055C883.249,1422.995 884.444,1440.288 884.444,1440.288" style="fill:none;stroke:rgb(110,74,10);stroke-opacity:0.36;stroke-width:1.98px;"/>
        </g>
        <g id="Fosforo4" serif:id="Fosforo" transform="matrix(0.982284,0.982284,-0.798978,0.798978,1061.011166,-791.590953)">
            <path d="M870.969,1432.867L869.848,787.314C881.951,779.848 917.476,780.179 928.121,788.601L926.243,1434.511C920.018,1456.171 872.594,1456.1 870.969,1432.867Z" style="fill:url(#_Linear6);"/>
            <path d="M869.848,787.314C869.848,787.314 869.529,786.474 869.372,785.901C856.087,737.419 855.521,718.523 855.47,702.858C850.826,652.269 924.594,626.174 942.027,695.965C943.654,724.868 935.383,756.225 928.583,785.783C928.428,786.455 928.121,788.601 928.121,788.601C927.523,788.128 926.846,787.68 926.099,787.257C914.023,780.431 883.651,780.27 871.211,786.554C870.729,786.798 870.274,787.051 869.848,787.314Z" style="fill:rgb(134,50,31);"/>
            <path d="M916.48,783.853C902.13,780.644 881.055,781.581 871.211,786.554C870.729,786.798 870.274,787.051 869.848,787.314C869.848,787.314 869.529,786.474 869.372,785.901C856.087,737.419 855.521,718.523 855.47,702.858C852.801,673.791 876.019,652.81 899.564,653.458C937.114,666.499 929.461,720.707 916.48,783.853Z" style="fill:rgb(199,87,57);"/>
            <path d="M887.612,787.314C887.612,787.314 887.36,879.142 891.197,923.041C892.966,943.275 897.35,1009.008 892.99,1051.658C888.708,1093.538 885.167,1164.915 891.197,1213.346C895.346,1246.671 895.948,1275.434 901.116,1313.603C906.606,1354.138 904.431,1445.612 902.586,1444.587" style="fill:none;stroke:rgb(110,74,10);stroke-opacity:0.36;stroke-width:1.59px;"/>
            <path d="M911.381,1327.369C911.08,1324.516 910.827,1312.266 910.468,1309.317C910.343,1308.294 909.5,1299.528 909.211,1297.685C908.393,1292.459 908.34,1292.472 908.029,1289.852C903.063,1248.013 903.106,1248.006 902.783,1245.023C900.812,1226.837 900.414,1223.411 899.878,1214.847C899.487,1208.605 899.459,1206.566 899.158,1200.581C898.445,1186.398 898.014,1167.861 898.045,1153.607C898.119,1120.243 899.325,1098.623 899.591,1093.851C901.001,1068.58 902.617,1060.452 904.988,1040.217C907.082,1022.346 907.098,1015.944 907.428,1004.595C908.332,973.426 909.053,933.848 905.095,906.871C905.076,906.736 901.144,881.855 899.417,843.032C898.366,819.398 898.781,804.953 898.895,801.035C898.912,800.475 899.434,792.82 900.369,785.692C900.411,785.369 900.402,785.368 900.415,785.344C900.526,785.138 900.61,785.247 900.721,785.042C900.771,785.294 900.901,785.516 900.951,785.769C900.967,785.849 900.647,790.694 900.756,800.256C900.773,801.811 900.447,809.326 900.674,823.526C901.067,848.027 903.052,880.654 906.772,906.502C911.073,936.391 909.154,980.618 908.449,1011.705C908.147,1025.02 907.21,1033.825 905.044,1052.156C903.096,1068.648 901.839,1078.546 900.667,1111.527C899.957,1131.499 899.817,1147.091 899.775,1164.435C899.768,1167.493 899.722,1186.497 900.405,1202.645C900.506,1205.035 900.868,1210.237 900.913,1210.896C901.718,1222.49 902.445,1227.693 904.016,1240.325C904.85,1247.026 904.87,1247.021 905.656,1253.732C907.703,1271.188 910.025,1290.708 910.025,1290.708C910.625,1297.576 910.639,1297.576 910.837,1304.478C910.928,1307.622 910.938,1307.998 911.074,1309.531C911.278,1311.812 911.186,1323.673 911.381,1327.369Z" style="fill:rgb(110,74,10);fill-opacity:0.36;"/>
            <path d="M895.736,1446.911C895.702,1446.765 895.504,1446.741 895.47,1446.596C895.404,1446.313 895.463,1446.008 895.456,1445.715C895.365,1442.262 895.3,1442.267 894.145,1402.562C893.731,1388.341 892.333,1343.158 889.872,1301.047C889.293,1291.137 889.021,1280.197 888.744,1271.778C888.704,1270.543 888.682,1270.514 888.718,1270.51C888.758,1270.505 888.738,1270.542 888.874,1271.764C889.772,1279.778 890.938,1290.472 891.548,1300.899C894.032,1343.412 894.999,1378.618 895.623,1408.298C895.919,1422.41 895.966,1440.776 895.973,1443.6C895.975,1444.301 895.973,1445.001 895.978,1445.702C895.98,1445.996 896.049,1446.298 895.992,1446.583C895.963,1446.73 895.766,1446.764 895.736,1446.911Z" style="fill:rgb(110,74,10);fill-opacity:0.36;"/>
            <path d="M914.309,1238.842C912.346,1224.525 909.339,1200.788 908.363,1160.993C907.905,1142.294 908.165,1125.832 908.295,1118.643C908.549,1104.554 909.972,1084.037 909.967,1084.458L909.723,1101.254L909.4,1125.67C908.816,1172.111 911.031,1202.095 912.288,1217.663C913.121,1227.977 914.124,1237.152 914.309,1238.842Z" style="fill:rgb(110,74,10);fill-opacity:0.36;"/>
            <path d="M912.757,787.651C911.508,854.903 915.308,874.672 917.582,904.227C918.614,917.642 917.86,936.007 917.991,957.794C918.922,1112.16 919.589,1440.287 919.589,1440.287" style="fill:none;stroke:rgb(110,74,10);stroke-opacity:0.36;stroke-width:2.06px;"/>
            <path d="M878.75,793.518C878.75,793.518 875.392,923.384 880.099,972.539C883.841,1011.621 882.444,1050.704 880.983,1089.786C878.79,1148.42 881.528,1324.966 882.864,1401.055C883.249,1422.995 884.444,1440.288 884.444,1440.288" style="fill:none;stroke:rgb(110,74,10);stroke-opacity:0.36;stroke-width:2.06px;"/>
        </g>
        <g id="Fosforo5" serif:id="Fosforo" transform="matrix(1.317502,-0,0,1.317502,-513.100076,-469.152223)">
            <path d="M869.848,787.314C869.848,787.314 869.529,786.474 869.372,785.901C856.087,737.419 855.521,718.523 855.47,702.858C850.826,652.269 924.594,626.174 942.027,695.965C943.654,724.868 935.383,756.225 928.583,785.783C928.428,786.455 928.121,788.601 928.121,788.601C927.523,788.128 926.846,787.68 926.099,787.257C914.023,780.431 883.651,780.27 871.211,786.554C870.729,786.798 870.274,787.051 869.848,787.314Z" style="fill:rgb(134,50,31);"/>
            <path d="M916.48,783.853C902.13,780.644 881.055,781.581 871.211,786.554C870.729,786.798 870.274,787.051 869.848,787.314C869.848,787.314 869.529,786.474 869.372,785.901C856.087,737.419 855.521,718.523 855.47,702.858C852.801,673.791 876.019,652.81 899.564,653.458C937.114,666.499 929.461,720.707 916.48,783.853Z" style="fill:rgb(199,87,57);"/>
        </g>
    </g>
    <defs>
        <radialGradient id="_Radial1" cx="0" cy="0" r="1" gradientUnits="userSpaceOnUse" gradientTransform="matrix(368.64,0,0,368.64,256,215.04)"><stop offset="0" style="stop-color:rgb(21,120,74);stop-opacity:1"/><stop offset="0.62" style="stop-color:rgb(16,97,56);stop-opacity:1"/><stop offset="1" style="stop-color:rgb(12,79,47);stop-opacity:1"/></radialGradient>
        <linearGradient id="_Linear2" x1="0" y1="0" x2="1" y2="0" gradientUnits="userSpaceOnUse" gradientTransform="matrix(58.273779,0,0,668.546207,869.847693,1116.257066)"><stop offset="0" style="stop-color:rgb(198,145,52);stop-opacity:1"/><stop offset="0.03" style="stop-color:rgb(215,173,83);stop-opacity:1"/><stop offset="0.06" style="stop-color:rgb(233,203,116);stop-opacity:1"/><stop offset="0.13" style="stop-color:rgb(242,217,132);stop-opacity:1"/><stop offset="0.43" style="stop-color:rgb(251,203,106);stop-opacity:1"/><stop offset="0.66" style="stop-color:rgb(231,191,110);stop-opacity:1"/><stop offset="0.87" style="stop-color:rgb(229,187,109);stop-opacity:1"/><stop offset="0.93" style="stop-color:rgb(185,139,77);stop-opacity:1"/><stop offset="1" style="stop-color:rgb(126,73,24);stop-opacity:1"/></linearGradient>
        <linearGradient id="_Linear3" x1="0" y1="0" x2="1" y2="0" gradientUnits="userSpaceOnUse" gradientTransform="matrix(58.273779,0,0,668.546207,869.847693,1116.257066)"><stop offset="0" style="stop-color:rgb(198,145,52);stop-opacity:1"/><stop offset="0.03" style="stop-color:rgb(215,173,83);stop-opacity:1"/><stop offset="0.06" style="stop-color:rgb(233,203,116);stop-opacity:1"/><stop offset="0.13" style="stop-color:rgb(242,217,132);stop-opacity:1"/><stop offset="0.43" style="stop-color:rgb(251,203,106);stop-opacity:1"/><stop offset="0.66" style="stop-color:rgb(231,191,110);stop-opacity:1"/><stop offset="0.87" style="stop-color:rgb(229,187,109);stop-opacity:1"/><stop offset="0.93" style="stop-color:rgb(185,139,77);stop-opacity:1"/><stop offset="1" style="stop-color:rgb(126,73,24);stop-opacity:1"/></linearGradient>
        <linearGradient id="_Linear4" x1="0" y1="0" x2="1" y2="0" gradientUnits="userSpaceOnUse" gradientTransform="matrix(58.273779,0,0,668.546207,869.847693,1116.257066)"><stop offset="0" style="stop-color:rgb(198,145,52);stop-opacity:1"/><stop offset="0.03" style="stop-color:rgb(215,173,83);stop-opacity:1"/><stop offset="0.06" style="stop-color:rgb(233,203,116);stop-opacity:1"/><stop offset="0.13" style="stop-color:rgb(242,217,132);stop-opacity:1"/><stop offset="0.43" style="stop-color:rgb(251,203,106);stop-opacity:1"/><stop offset="0.66" style="stop-color:rgb(231,191,110);stop-opacity:1"/><stop offset="0.87" style="stop-color:rgb(229,187,109);stop-opacity:1"/><stop offset="0.93" style="stop-color:rgb(185,139,77);stop-opacity:1"/><stop offset="1" style="stop-color:rgb(126,73,24);stop-opacity:1"/></linearGradient>
        <linearGradient id="_Linear5" x1="0" y1="0" x2="1" y2="0" gradientUnits="userSpaceOnUse" gradientTransform="matrix(58.273779,0,0,668.546207,869.847693,1116.257066)"><stop offset="0" style="stop-color:rgb(198,145,52);stop-opacity:1"/><stop offset="0.03" style="stop-color:rgb(215,173,83);stop-opacity:1"/><stop offset="0.06" style="stop-color:rgb(233,203,116);stop-opacity:1"/><stop offset="0.13" style="stop-color:rgb(242,217,132);stop-opacity:1"/><stop offset="0.43" style="stop-color:rgb(251,203,106);stop-opacity:1"/><stop offset="0.66" style="stop-color:rgb(231,191,110);stop-opacity:1"/><stop offset="0.87" style="stop-color:rgb(229,187,109);stop-opacity:1"/><stop offset="0.93" style="stop-color:rgb(185,139,77);stop-opacity:1"/><stop offset="1" style="stop-color:rgb(126,73,24);stop-opacity:1"/></linearGradient>
        <linearGradient id="_Linear6" x1="0" y1="0" x2="1" y2="0" gradientUnits="userSpaceOnUse" gradientTransform="matrix(58.273779,0,0,668.546207,869.847693,1116.257066)"><stop offset="0" style="stop-color:rgb(198,145,52);stop-opacity:1"/><stop offset="0.03" style="stop-color:rgb(215,173,83);stop-opacity:1"/><stop offset="0.06" style="stop-color:rgb(233,203,116);stop-opacity:1"/><stop offset="0.13" style="stop-color:rgb(242,217,132);stop-opacity:1"/><stop offset="0.43" style="stop-color:rgb(251,203,106);stop-opacity:1"/><stop offset="0.66" style="stop-color:rgb(231,191,110);stop-opacity:1"/><stop offset="0.87" style="stop-color:rgb(229,187,109);stop-opacity:1"/><stop offset="0.93" style="stop-color:rgb(185,139,77);stop-opacity:1"/><stop offset="1" style="stop-color:rgb(126,73,24);stop-opacity:1"/></linearGradient>
    </defs>
</svg>
